<svg width="512" height="512" viewBox="0 0 512.001 512.001" xmlns="http://www.w3.org/2000/svg" xmlns:xlink="http://www.w3.org/1999/xlink" id="Capa_1" overflow="hidden"><g><g><g><path d="M284.286 256.002 506.143 34.144C513.954 26.333 513.954 13.669 506.143 5.859 498.332-1.951 485.668-1.952 477.858 5.859L256 227.717 34.143 5.859C26.332-1.952 13.668-1.952 5.858 5.859-1.952 13.67-1.953 26.334 5.858 34.144L227.715 256.001 5.858 477.859C-1.953 485.67-1.953 498.334 5.858 506.144 9.763 510.049 14.882 512.001 20.001 512.001 25.12 512.001 30.238 510.049 34.144 506.144L256 284.287 477.857 506.144C481.762 510.049 486.881 512.001 492 512.001 497.119 512.001 502.237 510.049 506.143 506.144 513.954 498.333 513.954 485.669 506.143 477.859L284.286 256.002Z" fill="#F1C40E"/></g></g></g></svg>