<?xml version="1.0"?>
<svg xmlns="http://www.w3.org/2000/svg" xmlns:xlink="http://www.w3.org/1999/xlink" version="1.1" id="Capa_1" x="0px" y="0px" viewBox="0 0 511.911 511.911" style="enable-background:new 0 0 511.911 511.911;" xml:space="preserve" width="512px" height="512px"><g><g>
	<g>
		<g>
			<path d="M301.657,365.625h-91.429c-5.049,0-9.143,4.093-9.143,9.143v137.143H310.8V374.768     C310.8,369.719,306.707,365.625,301.657,365.625z M228.514,447.911h-9.143c-5.049,0-9.143-4.093-9.143-9.143     c0-5.049,4.093-9.143,9.143-9.143h9.143c5.049,0,9.143,4.093,9.143,9.143C237.657,443.818,233.564,447.911,228.514,447.911z" data-original="#000000" class="active-path" data-old_color="#000000" fill="#F1C40E"/>
			<path d="M483.317,230.146L262.343,2.654C260.657,0.955,258.363,0,255.97,0c-2.393,0-4.687,0.955-6.373,2.654L28.569,230.146     c-2.812,2.898-3.589,7.21-1.966,10.907c1.359,3.427,4.661,5.687,8.347,5.714h3.127c2.419,0.001,4.732-0.991,6.4-2.743     c0.064-0.073,0.165-0.091,0.229-0.155c0.064-0.064,0.128-0.165,0.21-0.229l21.266-21.897L249.406,33.035     c3.651-3.547,9.46-3.547,13.111,0l183.223,188.709l21.266,21.897c0.082,0.064,0.128,0.155,0.21,0.229     c0.082,0.073,0.165,0.082,0.229,0.155c1.668,1.752,3.981,2.744,6.4,2.743h3.127c3.687-0.027,6.988-2.287,8.347-5.714     C486.933,237.349,486.141,233.036,483.317,230.146z" data-original="#000000" class="active-path" data-old_color="#000000" fill="#F1C40E"/>
			<path d="M210.229,210.197v64c0,5.049,4.093,9.143,9.143,9.143h73.143c5.049,0,9.143-4.093,9.143-9.143v-64     c0-5.049-4.093-9.143-9.143-9.143h-73.143C214.322,201.054,210.229,205.147,210.229,210.197z" data-original="#000000" class="active-path" data-old_color="#000000" fill="#F1C40E"/>
			<path d="M82.229,231.445v271.323c0,5.049,4.093,9.143,9.143,9.143H182.8V374.768c0-15.148,12.28-27.429,27.429-27.429h91.429     c15.148,0,27.429,12.28,27.429,27.429v137.143h91.429c5.049,0,9.143-4.093,9.143-9.143V231.445L255.943,52.528L82.229,231.445z      M319.943,210.197v64c0,15.148-12.28,27.429-27.429,27.429h-73.143c-15.148,0-27.429-12.28-27.429-27.429v-64     c0-15.148,12.28-27.429,27.429-27.429h73.143C307.663,182.768,319.943,195.048,319.943,210.197z" data-original="#000000" class="active-path" data-old_color="#000000" fill="#F1C40E"/>
		</g>
	</g>
</g></g> </svg>
