<svg id="Livello_1" data-name="Livello 1" xmlns="http://www.w3.org/2000/svg" viewBox="0 0 86.12 95">
  <defs>
    <style>
      .cls-1 {
        fill: #34495e;
      }
    </style>
  </defs>
  <title>34495e</title>
  <path class="cls-1" d="M83.87,74.35l-.05,0s0,0,0-.06L68.3,53.8a1.63,1.63,0,0,0-.11-.23L56.33,37.94,56.23,15c4.85-.6,7.38-4,7.38-7.45a7,7,0,0,0-2.46-5.31,10.46,10.46,0,0,0-7-2.26H32c-6.48,0-9.43,3.92-9.43,7.57,0,3.41,2.54,6.85,7.38,7.45l-.1,22.92L2.33,74.24s0,0,0,.06l0,0a14.24,14.24,0,0,0-.53,14.46A11.48,11.48,0,0,0,11.79,95H74.33A11.48,11.48,0,0,0,84.4,88.81,14.24,14.24,0,0,0,83.87,74.35Zm-2.07,13A8.58,8.58,0,0,1,74.33,92H11.79a8.56,8.56,0,0,1-7.47-4.65A11.28,11.28,0,0,1,4.76,76L32.51,39.35c0-.05,0-.11.07-.16a1,1,0,0,0,.13-.27,1.63,1.63,0,0,0,.07-.3s0-.11,0-.16l.11-24.83a2.16,2.16,0,0,0-.05-.27,1.41,1.41,0,0,0-.07-.31,1,1,0,0,0-.14-.21,1.17,1.17,0,0,0-.17-.26,1,1,0,0,0-.21-.14,1.16,1.16,0,0,0-.27-.18,1.18,1.18,0,0,0-.27-.06,1.45,1.45,0,0,0-.3-.06h0c-4.05,0-5.9-2.37-5.9-4.57S27.53,3,32,3h22.2c4.46,0,6.45,2.3,6.45,4.59s-1.84,4.57-5.9,4.57a1.55,1.55,0,0,0-.31.06,1.18,1.18,0,0,0-.27.06,1.16,1.16,0,0,0-.27.18.79.79,0,0,0-.38.4c0,.07-.1.13-.14.21a1.42,1.42,0,0,0-.06.31,1.17,1.17,0,0,0,0,.27v3.58H44.51a1.49,1.49,0,0,0,0,3h8.76l.06,12.12H44.51a1.49,1.49,0,1,0,0,3h8.83v2.86a1.49,1.49,0,0,0,.26,1.2l5.86,7.73H52a1.49,1.49,0,0,0,0,3h9.51l.16,0,9,11.83H63.5a1.49,1.49,0,1,0,0,3h9.43L81.36,76A11.28,11.28,0,0,1,81.8,87.37Z"/>
</svg>
