<?xml version="1.0" encoding="utf-8"?>
<!-- Generator: Adobe Illustrator 22.1.0, SVG Export Plug-In . SVG Version: 6.00 Build 0)  -->
<svg version="1.1" id="Layer_1" focusable="false" xmlns="http://www.w3.org/2000/svg" xmlns:xlink="http://www.w3.org/1999/xlink"
	 x="0px" y="0px" viewBox="0 0 512 512" style="enable-background:new 0 0 512 512;" xml:space="preserve">
<style type="text/css">
	.st0{fill:#FFFFFF;}
</style>
<path class="st0" d="M510.3,445.9l-73-292.1c-3.8-15.2-16.4-25.7-30.9-25.7h-60.3c3.6-10.1,5.9-20.7,5.9-32c0-53-43-96-96-96
	s-96,43-96,96c0,11.3,2.3,21.9,5.9,32h-60.3c-14.4,0-27.1,10.5-30.9,25.7L1.7,445.9C-6.6,479.2,16.4,512,48,512h416
	C495.6,512,518.6,479.2,510.3,445.9z M256,128c-17.6,0-32-14.4-32-32s14.4-32,32-32s32,14.4,32,32S273.6,128,256,128z"/>
</svg>
