<?xml version="1.0"?>
<svg xmlns="http://www.w3.org/2000/svg" xmlns:xlink="http://www.w3.org/1999/xlink" version="1.1" id="Capa_1" x="0px" y="0px" viewBox="0 0 512 512" style="enable-background:new 0 0 512 512;" xml:space="preserve" width="512px" height="512px"><g><g>
	<g>
		<path d="M451.403,273.574c-4.433-5.868-9.266-11.731-14.398-17.574c5.132-5.843,9.965-11.706,14.398-17.574    c32.912-43.574,42.255-82.792,26.296-110.426c-2.419-4.19-5.416-8.048-8.91-11.53c3.355-6.499,5.285-13.851,5.285-21.655    c0-26.139-21.269-47.407-47.407-47.407c-26.044,0-47.241,21.119-47.393,47.13c-10.465,0.873-21.402,2.456-32.711,4.722    C325.941,38.53,293.341,0,256,0c-37.329,0-69.92,38.507-90.544,99.205C102.602,86.73,52.961,95.68,34.296,128    c-15.954,27.634-6.611,66.852,26.301,110.426c4.433,5.868,9.267,11.731,14.399,17.574c-5.132,5.842-9.966,11.706-14.399,17.574    c-32.912,43.574-42.255,82.792-26.301,110.421c1.752,3.038,3.818,5.913,6.146,8.587c-1.606,4.756-2.516,9.83-2.516,15.122    c0,26.139,21.269,47.407,47.407,47.407c22.758,0,41.809-16.127,46.361-37.549c10.763-0.853,22.057-2.491,33.738-4.836    C186.056,473.464,218.657,512,256,512c37.333,0,69.927-38.515,90.551-99.222c18.035,3.579,35.017,5.449,50.454,5.449    c38.347,0,67.394-11.185,80.699-34.227C493.657,356.366,484.315,317.148,451.403,273.574z M426.667,66.37    c15.685,0,28.444,12.759,28.444,28.444s-12.759,28.444-28.444,28.444s-28.444-12.759-28.444-28.444    C398.222,79.13,410.982,66.37,426.667,66.37z M345.255,177.558c-10.421-6.943-21.226-13.663-32.366-20.095    c-11.255-6.498-22.491-12.498-33.648-18.024c18.565-7.421,36.81-13.404,54.307-17.829    C338.391,138.812,342.352,157.611,345.255,177.558z M256,18.963c28.41,0,54.38,33.18,71.928,84.553    c-23.09,5.911-47.329,14.382-71.816,25.105c-24.918-10.96-49.163-19.358-72.015-25.177C201.646,52.112,227.604,18.963,256,18.963z     M178.439,121.664c17.301,4.405,35.551,10.409,54.256,17.861c-11.237,5.55-22.462,11.517-33.583,17.938    c-11.139,6.432-21.943,13.151-32.365,20.095C169.646,157.632,173.602,138.853,178.439,121.664z M50.722,137.482    c9.759-16.907,32.5-24.986,63.056-24.986c13.876,0,29.403,1.727,46.014,4.988c-6.372,22.667-11.192,47.854-14.157,74.864    c-21.54,15.83-41.002,32.57-57.704,49.677c-4.334-5.002-8.412-10.016-12.199-15.029C48.106,190.426,38.991,157.801,50.722,137.482    z M143.431,294.169c-15.704-12.359-30.044-25.166-42.66-38.169c12.616-13.004,26.956-25.81,42.66-38.168    C142.638,230.26,142.222,243,142.222,256S142.638,281.74,143.431,294.169z M85.333,436.148c-15.685,0-28.444-12.759-28.444-28.444    s12.759-28.444,28.444-28.444s28.444,12.759,28.444,28.444C113.778,423.389,101.019,436.148,85.333,436.148z M131.83,398.51    c-4.295-21.752-23.503-38.214-46.497-38.214c-13.476,0-25.627,5.681-34.267,14.739c-0.107-0.177-0.241-0.339-0.344-0.517    c-11.731-20.32-2.616-52.945,25.009-89.514c3.787-5.013,7.865-10.027,12.199-15.029c16.701,17.106,36.164,33.848,57.704,49.677    c2.966,27.022,7.79,52.22,14.167,74.896C150.137,396.421,140.796,397.737,131.83,398.51z M166.747,334.442    c10.421,6.943,21.226,13.663,32.365,20.095c11.26,6.5,22.493,12.459,33.655,17.987c-18.554,7.413-36.815,13.429-54.315,17.859    C173.609,373.183,169.648,354.386,166.747,334.442z M256,493.037c-28.409,0-54.377-33.18-71.926-84.549    c23.099-5.92,47.364-14.417,71.835-25.125c24.905,10.953,49.151,19.383,71.993,25.201    C310.352,459.891,284.396,493.037,256,493.037z M333.567,390.321c-17.318-4.409-35.567-10.369-54.29-17.831    c11.257-5.555,22.494-11.534,33.612-17.953c11.14-6.432,21.944-13.152,32.366-20.095    C342.356,354.362,338.402,373.137,333.567,390.321z M348.282,309.323c-14.148,10.05-29.148,19.709-44.875,28.788    c-15.669,9.046-31.547,17.213-47.358,24.442c-15.73-7.172-31.635-15.308-47.457-24.442c-15.726-9.079-30.727-18.738-44.875-28.788    c-1.653-17.203-2.533-35.06-2.533-53.323s0.88-36.12,2.533-53.323c14.148-10.049,29.149-19.71,44.875-28.788    c15.68-9.052,31.544-17.227,47.322-24.449c15.743,7.177,31.658,15.307,47.493,24.449c15.727,9.079,30.727,18.74,44.875,28.788    c1.653,17.203,2.532,35.06,2.532,53.323S349.935,292.12,348.282,309.323z M382.999,113.265c7.211,17,24.071,28.957,43.668,28.957    c11.433,0,21.933-4.068,30.131-10.833c1.713,1.9,3.232,3.928,4.48,6.093c11.731,20.319,2.616,52.944-25.009,89.514    c-3.786,5.013-7.863,10.027-12.199,15.029c-16.701-17.107-36.163-33.848-57.703-49.677c-2.966-27.02-7.789-52.216-14.164-74.889    C362.877,115.396,373.176,113.986,382.999,113.265z M368.571,217.832c15.704,12.358,30.044,25.164,42.66,38.168    c-12.616,13.003-26.956,25.81-42.66,38.169c0.793-12.429,1.207-25.169,1.207-38.169S369.364,230.26,368.571,217.832z     M461.278,374.518c-14.197,24.589-55.875,30.47-109.074,20.016c6.375-22.671,11.197-47.866,14.163-74.882    c21.539-15.829,41.001-32.571,57.703-49.677c4.336,5.002,8.413,10.016,12.199,15.029    C463.894,321.574,473.009,354.199,461.278,374.518z" data-original="#000000" class="active-path" data-old_color="#000000" fill="#34495E"/>
	</g>
</g><g>
	<g>
		<path d="M256,199.111c-26.139,0-47.407,21.268-47.407,47.407c0,26.139,21.269,47.407,47.407,47.407s47.407-21.269,47.407-47.407    C303.407,220.38,282.139,199.111,256,199.111z M256,274.963c-15.685,0-28.444-12.759-28.444-28.444s12.759-28.444,28.444-28.444    s28.444,12.759,28.444,28.444C284.445,262.204,271.685,274.963,256,274.963z" data-original="#000000" class="active-path" data-old_color="#000000" fill="#34495E"/>
	</g>
</g></g> </svg>
