<?xml version="1.0"?>
<svg xmlns="http://www.w3.org/2000/svg" xmlns:xlink="http://www.w3.org/1999/xlink" version="1.1" id="Capa_1" x="0px" y="0px" viewBox="0 0 512.001 512.001" style="enable-background:new 0 0 512.001 512.001;" xml:space="preserve" width="512px" height="512px"><g><g>
	<g>
		<path d="M503.706,301.583l-59.999-30c-2.083-1.041-4.379-1.583-6.708-1.583h-45.3c-0.454-11.563-1.429-22.964-2.911-34.123    l54.92-27.46c5.082-2.541,8.292-7.735,8.292-13.417v-89.999c0-8.284-6.716-15-15-15c-8.284,0-15,6.716-15,15v80.728l-38.72,19.36    c-13.095-57.657-46.1-124.378-102.028-141.312c17.698-20.981,44.472-33.776,72.828-33.776h82.917c8.284,0,15-6.716,15-15    c0-8.284-6.716-15-15-15h-82.917c-38.48,0-74.798,17.977-98.081,47.269c-23.283-29.293-59.601-47.269-98.081-47.269H75.002    c-8.284,0-15,6.716-15,15c0,8.284,6.716,15,15,15h82.917c28.356,0,55.13,12.795,72.828,33.776    c-55.986,16.953-88.936,83.674-102.025,141.312l-38.721-19.36v-80.728c0-8.284-6.716-15-15-15c-8.284,0-15,6.716-15,15v89.999    c0,5.682,3.21,10.875,8.292,13.417l54.92,27.46c-1.482,11.159-2.457,22.56-2.912,34.123h-45.3c-2.329,0-4.625,0.542-6.708,1.583    l-59.999,30c-7.41,3.705-10.413,12.715-6.708,20.125c3.706,7.411,12.716,10.412,20.125,6.708l56.832-28.417h41.759    c0.844,21.589,3.504,42.646,7.853,62.652l-59.86,29.93c-5.082,2.541-8.292,7.735-8.292,13.417v90.999c0,8.284,6.716,15,15,15    c8.284,0,15-6.716,15-15v-81.728l46.065-23.033c18.696,58.268,59.468,119.714,119.868,119.76c0.022,0,0.043,0.003,0.065,0.003    c0.022,0,0.043-0.003,0.065-0.003c60.691-0.047,101.301-61.894,119.868-119.76l46.065,23.033v81.728c0,8.284,6.716,15,15,15    c8.284,0,15-6.716,15-15v-90.999c0-5.682-3.21-10.875-8.292-13.417l-59.86-29.93c4.349-20.006,7.01-41.064,7.853-62.652h41.758v0    l56.832,28.417c7.411,3.706,16.421,0.7,20.125-6.708C514.119,314.298,511.115,305.288,503.706,301.583z M241,479.889    c-48.482-13.643-90.999-94.23-90.999-194.89c0-39.133,6.659-76.01,17.955-106.948c20.523,17.124,46.16,28.104,73.044,31.109    V479.889z M256,180c-28.198,0-55.636-11.374-75.25-30.811c19.376-36.302,46.168-59.188,75.25-59.188s55.874,22.886,75.25,59.188    C311.636,168.626,284.198,180,256,180z M271,479.89V209.161c26.884-3.005,52.522-13.986,73.044-31.109    C355.34,208.99,361.999,245.868,361.999,285C361.999,384.347,320.158,466.056,271,479.89z" data-original="#000000" class="active-path" data-old_color="#000000" fill="#34495E"/>
	</g>
</g></g> </svg>
